<svg xmlns="http://www.w3.org/2000/svg" width="900" height="325" viewBox="0 0 900 325">
  <defs>
    <style>
      :root{
        --gold:#D4AF37;
        --blue:#1E5EFF;
      }
      .gold{ fill:var(--gold); }
      .blue{ fill:var(--blue); }
      .brand{
        font-family: Inter, "Segoe UI", Arial, sans-serif;
        font-weight: 800;
      }
      .product{
        font-family: Inter, "Segoe UI", Arial, sans-serif;
        font-weight: 900;
      }
    </style>
  </defs>

  <!-- Background -->
  <rect width="900" height="325" fill="#FFFFFF"/>

  <!-- ===================== -->
  <!-- Database icon (left side, 20px margin) -->
  <!-- ===================== -->
  <g transform="translate(20,57) scale(0.16)">
    <path transform="translate(615,131)" d="m0 0h53l40 2 46 4 47 7 34 7 37 10 36 12 26 11 24 12 17 10 14 10 10 8 13 12 9 10 9 14 6 13 4 13 2 14 1 13 1 231-1 21-2 12-4 8-9 10-9 8-19 13-25 14-23 11-28 11-35 12-37 10-36 8-43 7-42 5-34 3-48 3h-45l-59-4-48-5-38-6-34-7-31-8-30-9-26-10-25-11-20-11-9-6-7-4v95l2 19 3 10 6 12 7 9 6 7 11 9 15 10 20 11 25 10 24 8 30 8 38 8 4 2v56l-17-2-43-9-34-9-26-9-26-11-25-13-11-7-6-5-2-3-1 5v78l1 17 4 16 6 12 8 10 9 9 11 8 21 12 17 8 29 11 26 8 14 4 1 1v57l-19-4-29-8-30-10-26-11-22-12-14-9-11-8-11-10-6-5-7-8-10-13-7-12-5-14-3-14-2-28v-593l2-26 4-17 6-14 7-11 7-9 10-11h2v-2l11-9 13-10 15-10 19-11 27-13 29-11 32-10 36-9 38-7 37-5 53-4z" fill="#E1AD2D"/>
    <path transform="translate(614,189)" d="m0 0h55l53 3 44 5 35 6 36 8 35 10 30 11 28 13 18 10 14 10 12 11 6 7 4 7 3 11 1 11-2 12-5 12-8 10-12 12-15 11-24 13-23 10-33 11-34 9-41 8-35 5-25 3-42 3h-96l-49-3-44-5-31-5-40-9-29-8-29-10-23-10-19-10-12-8-11-9-10-10-8-14-4-12v-13l3-12 6-12 16-16 13-9 13-8 16-8 23-10 36-12 29-8 32-7 37-6 35-4 50-3z" fill="#FDFDFD"/>
    <path transform="translate(277,404)" d="m0 0 7 4 10 7 16 9 22 11 33 13 31 10 40 10 36 7 34 5 26 3 53 4 36 1h38l38-1 47-4 44-6 38-7 38-9 34-10 24-9 18-8 16-8 14-8 15-10 3-1 1 1 1 31v54l-1 24-3 16-6 12-8 10-8 8-13 10-22 13-28 13-25 9-26 8-39 9-40 7-30 4-45 4-22 1h-87l-37-2-41-4-34-5-36-7-32-8-36-12-20-8-19-9-18-11-13-11-11-12-6-11-4-10-3-16-1-18v-57z" fill="#FDFDFD"/>

    <!-- ATB letters -->
    <path transform="translate(945,780)" d="m0 0h112l20 2 15 4 17 8 9 7 8 8 9 14 6 15 3 12 1 13v11l-1 11-5 16-8 14-7 9-11 9h-3l1 2 12 6 12 11 6 7 8 15 4 14 2 10v22l-4 18-4 11-8 14-9 11-7 7-10 7-15 8-16 5-16 3-30 1h-63l-27-1-1-1-1-317z" fill="#E1AD2D"/>
    <path transform="translate(580,780)" d="m0 0h60l4 9 11 35 18 56 24 74 16 50 20 62 9 29 2 5v4h-59l-7-24-15-51-1-3h-107l-6 19-10 34-6 19-2 6h-58l1-6 12-36 19-58 16-50 35-106 22-66z" fill="#E1AD2D"/>
    <path transform="translate(711,780)" d="m0 0h210l1 1v14l-1 33-56 1h-21l-1 132v143l-7 1h-48l-1-1-1-274-30-1h-44l-1-1z" fill="#E1AD2D"/>
    <path transform="translate(1e3 960)" d="m0 0h49l15 2 13 4 9 6 9 10 4 14v15l-4 14-5 9-8 9-14 7-13 3-14 1h-42v-67z" fill="#FDFDFD"/>
    <path transform="translate(1e3 828)" d="m0 0h33l17 1 13 3 11 6 5 4 5 7 3 9 1 7v10l-2 12-5 10-8 8-9 4-9 2-54 1-2-3v-36z" fill="#FDFDFD"/>
    <path transform="translate(609,837)" d="m0 0 2 2 8 32 19 69 10 35-1 3h-76l-1-4 8-26 10-36 12-43 8-31z" fill="#FDFDFD"/>
  </g>

  <!-- ===================== -->
  <!-- Text (right side, ends at 880px = 20px from right edge) -->
  <!-- ===================== -->

  <!-- Brand line: AdaskoTheBeAsT -->
  <text x="270" y="135" class="brand" font-size="48"
        textLength="610" lengthAdjust="spacingAndGlyphs">
    <tspan class="gold">A</tspan><tspan class="blue">dasko</tspan><tspan class="gold">T</tspan><tspan class="blue">he</tspan><tspan class="gold">B</tspan><tspan class="blue">eAsT</tspan>
  </text>

  <!-- ValueSql: larger, lower -->
  <text x="270" y="228" class="product blue" font-size="89"
        textLength="610" lengthAdjust="spacingAndGlyphs">
    ValueSql
  </text>
</svg>
